<?xml version="1.0" encoding="UTF-8" standalone="no"?>
<!DOCTYPE svg PUBLIC "-//W3C//DTD SVG 20010904//EN"
              "http://www.w3.org/TR/2001/REC-SVG-20010904/DTD/svg10.dtd">

<svg xmlns="http://www.w3.org/2000/svg"
     width="105.82mm" height="105.82mm"
     viewBox="0 0 300 300">
  <path id="Selection"
        fill="none" stroke="black" stroke-width="1"
        d="M 219.00,101.00
           C 212.01,121.98 199.90,142.46 182.00,156.00
             181.89,143.97 177.30,132.24 171.20,122.00
             153.84,92.90 123.67,76.62 90.00,77.00
             70.89,77.22 50.87,85.06 38.62,100.00
             33.19,106.62 30.83,111.06 27.81,119.00
             24.78,126.99 23.01,137.46 23.00,146.00
             22.96,173.68 30.12,195.59 47.92,217.00
             57.76,228.84 77.95,244.94 93.00,249.00
             93.00,249.00 73.00,271.00 73.00,271.00
             70.58,273.40 63.68,279.21 62.79,282.03
             60.86,288.19 68.16,288.07 72.00,287.99
             86.19,287.67 108.22,280.93 121.00,274.74
             121.00,274.74 143.00,262.14 143.00,262.14
             144.99,261.92 147.91,262.00 150.00,262.14
             150.00,262.14 163.00,262.14 163.00,262.14
             177.48,261.83 193.94,257.39 207.00,251.29
             245.55,233.29 272.22,199.28 278.27,157.00
             279.18,150.67 280.07,144.41 280.00,138.00
             280.00,138.00 278.28,122.00 278.28,122.00
             272.41,76.95 243.52,43.63 203.00,24.71
             189.86,18.57 170.53,13.07 156.00,13.00
             156.00,13.00 138.00,13.00 138.00,13.00
             127.36,13.05 127.87,14.48 119.00,16.75
             109.09,19.29 105.95,18.87 95.00,23.06
             76.98,29.96 57.74,45.86 48.78,63.00
             46.86,66.68 40.33,79.68 44.60,82.97
             49.19,86.52 61.09,77.21 65.00,74.69
             82.29,63.58 103.66,58.38 124.00,57.09
             128.26,56.82 130.90,57.49 135.00,57.95
             158.12,60.54 177.03,67.81 196.00,81.43
             196.00,81.43 206.96,90.29 206.96,90.29
             211.84,94.76 212.66,97.99 219.00,101.00 Z
           M 134.00,178.00
           C 103.24,183.60 74.72,179.05 50.00,159.00
             52.66,154.03 54.98,150.07 59.04,146.04
             69.47,135.69 87.55,130.69 102.00,131.01
             110.11,131.20 130.46,135.06 134.83,142.32
             136.24,144.67 136.00,148.32 135.92,151.00
             135.92,151.00 135.92,164.00 135.92,164.00
             135.92,164.00 134.00,178.00 134.00,178.00 Z" />
</svg>
